name p13_grf_mean_speed_1.8
datacolumns 13
datarows 40
range 0.0000000000 0.3900000000
endheader
time	grf_x_l_mean	grf_x_l_var	grf_y_l_mean	grf_y_l_var	grf_z_l_mean	grf_z_l_var	grf_x_r_mean	grf_x_r_var	grf_y_r_mean	grf_y_r_var	grf_z_r_mean	grf_z_r_var
0.0000000000	223.6992497580	1.0000000000	1026.2009193672	1.0000000000	0.0000000000	0.0000000000	13.6767459590	1.0000000000	11.6784418364	1.0000000000	0.0000000000	0.0000000000
0.0100000000	249.1366685228	1.0000000000	1025.5615564507	1.0000000000	0.0000000000	0.0000000000	17.6571509264	1.0000000000	55.8433466627	1.0000000000	0.0000000000	0.0000000000
0.0200000000	272.8625580894	1.0000000000	1008.0994490339	1.0000000000	0.0000000000	0.0000000000	18.2994387940	1.0000000000	128.5454700663	1.0000000000	0.0000000000	0.0000000000
0.0300000000	293.1376969327	1.0000000000	971.3954045421	1.0000000000	0.0000000000	0.0000000000	10.8988277381	1.0000000000	229.8608588917	1.0000000000	0.0000000000	0.0000000000
0.0400000000	306.7750917816	1.0000000000	912.6520648550	1.0000000000	0.0000000000	0.0000000000	-10.3531445084	1.0000000000	351.8866857655	1.0000000000	0.0000000000	0.0000000000
0.0500000000	309.1213916483	1.0000000000	830.4652020804	1.0000000000	0.0000000000	0.0000000000	-45.4550968694	1.0000000000	484.3134707345	1.0000000000	0.0000000000	0.0000000000
0.0600000000	297.8071908745	1.0000000000	727.3153850550	1.0000000000	0.0000000000	0.0000000000	-86.4268316687	1.0000000000	619.2514505197	1.0000000000	0.0000000000	0.0000000000
0.0700000000	272.7795704073	1.0000000000	609.4066529058	1.0000000000	0.0000000000	0.0000000000	-125.5772472335	1.0000000000	749.7779408352	1.0000000000	0.0000000000	0.0000000000
0.0800000000	233.7438991459	1.0000000000	484.5617168536	1.0000000000	0.0000000000	0.0000000000	-161.0626614780	1.0000000000	867.3807690590	1.0000000000	0.0000000000	0.0000000000
0.0900000000	184.0679065217	1.0000000000	361.3756197803	1.0000000000	0.0000000000	0.0000000000	-192.5350106082	1.0000000000	963.8819250637	1.0000000000	0.0000000000	0.0000000000
0.1000000000	132.3589789130	1.0000000000	249.6241861449	1.0000000000	0.0000000000	0.0000000000	-217.3768216315	1.0000000000	1035.6379030644	1.0000000000	0.0000000000	0.0000000000
0.1100000000	86.1523821584	1.0000000000	157.9123983340	1.0000000000	0.0000000000	0.0000000000	-233.2921932833	1.0000000000	1085.0144780938	1.0000000000	0.0000000000	0.0000000000
0.1200000000	49.0428463820	1.0000000000	89.3821740256	1.0000000000	0.0000000000	0.0000000000	-241.5594551255	1.0000000000	1117.1765899796	1.0000000000	0.0000000000	0.0000000000
0.1300000000	22.8058611379	1.0000000000	41.7909075012	1.0000000000	0.0000000000	0.0000000000	-244.2196718020	1.0000000000	1136.8269380837	1.0000000000	0.0000000000	0.0000000000
0.1400000000	7.1370661118	1.0000000000	11.9349678428	1.0000000000	0.0000000000	0.0000000000	-240.2173571956	1.0000000000	1147.6452812857	1.0000000000	0.0000000000	0.0000000000
0.1500000000	0.0000000000	1.0000000000	0.0000000000	1.0000000000	0.0000000000	0.0000000000	-230.0264595671	1.0000000000	1151.8625496461	1.0000000000	0.0000000000	0.0000000000
0.1600000000	0.0000000000	1.0000000000	0.0000000000	1.0000000000	0.0000000000	0.0000000000	-215.6289221536	1.0000000000	1148.9586204649	1.0000000000	0.0000000000	0.0000000000
0.1700000000	0.0000000000	1.0000000000	0.0000000000	1.0000000000	0.0000000000	0.0000000000	-197.9707993721	1.0000000000	1136.3202006406	1.0000000000	0.0000000000	0.0000000000
0.1800000000	0.0000000000	1.0000000000	0.0000000000	1.0000000000	0.0000000000	0.0000000000	-177.5306244918	1.0000000000	1112.4285027631	1.0000000000	0.0000000000	0.0000000000
0.1900000000	0.0000000000	1.0000000000	0.0000000000	1.0000000000	0.0000000000	0.0000000000	-155.6352574621	1.0000000000	1078.4447128844	1.0000000000	0.0000000000	0.0000000000
0.2000000000	0.0000000000	1.0000000000	0.0000000000	1.0000000000	0.0000000000	0.0000000000	-133.6946790825	1.0000000000	1036.1535051885	1.0000000000	0.0000000000	0.0000000000
0.2100000000	1.5647627099	1.0000000000	0.1619312870	1.0000000000	0.0000000000	0.0000000000	-111.6349602390	1.0000000000	986.1727288119	1.0000000000	0.0000000000	0.0000000000
0.2200000000	2.3260481619	1.0000000000	0.7578992250	1.0000000000	0.0000000000	0.0000000000	-90.0886523724	1.0000000000	929.1008550629	1.0000000000	0.0000000000	0.0000000000
0.2300000000	2.3661880793	1.0000000000	1.1424933050	1.0000000000	0.0000000000	0.0000000000	-70.3650803751	1.0000000000	866.5983888871	1.0000000000	0.0000000000	0.0000000000
0.2400000000	2.4688811627	1.0000000000	1.7078877829	1.0000000000	0.0000000000	0.0000000000	-53.1681457311	1.0000000000	800.7292170078	1.0000000000	0.0000000000	0.0000000000
0.2500000000	3.0413153421	1.0000000000	1.8238493929	1.0000000000	0.0000000000	0.0000000000	-38.3863961055	1.0000000000	733.3515874842	1.0000000000	0.0000000000	0.0000000000
0.2600000000	3.0030851607	1.0000000000	1.2272415587	1.0000000000	0.0000000000	0.0000000000	-26.1376866426	1.0000000000	666.6411258356	1.0000000000	0.0000000000	0.0000000000
0.2700000000	2.5123542351	1.0000000000	0.7038937127	1.0000000000	0.0000000000	0.0000000000	-16.9506775050	1.0000000000	603.2966674283	1.0000000000	0.0000000000	0.0000000000
0.2800000000	2.5249036316	1.0000000000	0.7577322425	1.0000000000	0.0000000000	0.0000000000	-10.1821829994	1.0000000000	545.8358612412	1.0000000000	0.0000000000	0.0000000000
0.2900000000	2.8411593010	1.0000000000	0.8452238907	1.0000000000	0.0000000000	0.0000000000	-5.2971492897	1.0000000000	496.3631314693	1.0000000000	0.0000000000	0.0000000000
0.3000000000	2.4636077940	1.0000000000	0.5114912327	1.0000000000	0.0000000000	0.0000000000	-2.0179977227	1.0000000000	456.5291767013	1.0000000000	0.0000000000	0.0000000000
0.3100000000	1.9717681477	1.0000000000	0.3303960120	1.0000000000	0.0000000000	0.0000000000	0.1588319157	1.0000000000	427.1712482127	1.0000000000	0.0000000000	0.0000000000
0.3200000000	2.3489400389	1.0000000000	0.7395514636	1.0000000000	0.0000000000	0.0000000000	1.6545549385	1.0000000000	408.3070654116	1.0000000000	0.0000000000	0.0000000000
0.3300000000	2.7305703597	1.0000000000	1.0558651759	1.0000000000	0.0000000000	0.0000000000	2.9893702562	1.0000000000	399.5521980105	1.0000000000	0.0000000000	0.0000000000
0.3400000000	2.5261369500	1.0000000000	0.8255299960	1.0000000000	0.0000000000	0.0000000000	4.5707039664	1.0000000000	400.4354065245	1.0000000000	0.0000000000	0.0000000000
0.3500000000	2.3593229120	1.0000000000	0.6554080617	1.0000000000	0.0000000000	0.0000000000	7.0399671711	1.0000000000	410.4705197053	1.0000000000	0.0000000000	0.0000000000
0.3600000000	2.5590677182	1.0000000000	1.0045616210	1.0000000000	0.0000000000	0.0000000000	10.6031362889	1.0000000000	429.0237592872	1.0000000000	0.0000000000	0.0000000000
0.3700000000	2.5175757686	1.0000000000	1.3550782729	1.0000000000	0.0000000000	0.0000000000	15.3031386969	1.0000000000	455.1208791026	1.0000000000	0.0000000000	0.0000000000
0.3800000000	2.1143451548	1.0000000000	1.1902163093	1.0000000000	0.0000000000	0.0000000000	21.6750362861	1.0000000000	487.6887361036	1.0000000000	0.0000000000	0.0000000000
0.3900000000	1.9288017654	1.0000000000	0.8220161900	1.0000000000	0.0000000000	0.0000000000	29.9386047183	1.0000000000	526.1158192173	1.0000000000	0.0000000000	0.0000000000
